<svg width="570" height="150"
   version="1.1"
   xmlns:xlink="http://www.w3.org/1999/xlink"
   xmlns="http://www.w3.org/2000/svg"
   xmlns:svg="http://www.w3.org/2000/svg">

<text x="20" y="25" text-anchor="end">10</text>
<text x="20" y="75" text-anchor="end">5</text>
<path d="M30 120 v-115" stroke="black" fill="none" stroke-width="1"/>

<path d="M30 120 h570" stroke="black" fill="none" stroke-width="1"/>
<path d="M30 70 h570" stroke="black" fill="none" stroke-width="1" stroke-dasharray="3"/>
<path d="M30 20 h570" stroke="black" fill="none" stroke-width="1" stroke-dasharray="3"/>
<a href="./boulders/?grade=4">
	<path d="M45 120 h-7 v-20 h14 v20 z" stroke="black" fill="white" stroke-width="1" />
	<text x="45" y="140" text-anchor="middle">4</text>
</a>
<a href="./boulders/?grade=5">
	<path d="M75 120 h-7 v-80 h14 v80 z" stroke="black" fill="white" stroke-width="1" />
	<text x="75" y="140" text-anchor="middle">5</text>
</a>
<a href="./boulders/?grade=6A">
	<path d="M105 120 h-7 v-90 h14 v90 z" stroke="black" fill="white" stroke-width="1" />
	<text x="105" y="140" text-anchor="middle">6A</text>
</a>
<a href="./boulders/?grade=6A%2B">
	<path d="M135 120 h-7 v-30 h14 v30 z" stroke="black" fill="white" stroke-width="1" />
	<text x="135" y="140" text-anchor="middle">6A+</text>
</a>
<a href="./boulders/?grade=6B">
	<path d="M165 120 h-7 v-90 h14 v90 z" stroke="black" fill="white" stroke-width="1" />
	<text x="165" y="140" text-anchor="middle">6B</text>
</a>
<a href="./boulders/?grade=6B%2B">
	<path d="M195 120 h-7 v-110 h14 v110 z" stroke="black" fill="white" stroke-width="1" />
	<text x="195" y="140" text-anchor="middle">6B+</text>
</a>
<a href="./boulders/?grade=6C">
	<path d="M225 120 h-7 v-90 h14 v90 z" stroke="black" fill="white" stroke-width="1" />
	<text x="225" y="140" text-anchor="middle">6C</text>
</a>
<a href="./boulders/?grade=6C%2B">
	<path d="M255 120 h-7 v-60 h14 v60 z" stroke="black" fill="white" stroke-width="1" />
	<text x="255" y="140" text-anchor="middle">6C+</text>
</a>
<a href="./boulders/?grade=7A">
	<path d="M285 120 h-7 v-70 h14 v70 z" stroke="black" fill="white" stroke-width="1" />
	<text x="285" y="140" text-anchor="middle">7A</text>
</a>
<a href="./boulders/?grade=7A%2B">
	<path d="M315 120 h-7 v-10 h14 v10 z" stroke="black" fill="white" stroke-width="1" />
	<text x="315" y="140" text-anchor="middle">7A+</text>
</a>
<a href="./boulders/?grade=7B">
	<path d="M345 120 h-7 v-50 h14 v50 z" stroke="black" fill="white" stroke-width="1" />
	<text x="345" y="140" text-anchor="middle">7B</text>
</a>
<a href="./boulders/?grade=7B%2B">
	<path d="M375 120 h-7 v-20 h14 v20 z" stroke="black" fill="white" stroke-width="1" />
	<text x="375" y="140" text-anchor="middle">7B+</text>
</a>
<a href="./boulders/?grade=7C">
	<path d="M405 120 h-7 v-30 h14 v30 z" stroke="black" fill="white" stroke-width="1" />
	<text x="405" y="140" text-anchor="middle">7C</text>
</a>
<a href="./boulders/?grade=7C%2B">
	<path d="M435 120 h-7 v-70 h14 v70 z" stroke="black" fill="white" stroke-width="1" />
	<text x="435" y="140" text-anchor="middle">7C+</text>
</a>
<a href="./boulders/?grade=8A">
	<path d="M465 120 h-7 v-40 h14 v40 z" stroke="black" fill="white" stroke-width="1" />
	<text x="465" y="140" text-anchor="middle">8A</text>
</a>
<a href="./boulders/?grade=8A%2B">
	<path d="M495 120 h-7 v-40 h14 v40 z" stroke="black" fill="white" stroke-width="1" />
	<text x="495" y="140" text-anchor="middle">8A+</text>
</a>
<a href="./boulders/?grade=8B">
	<path d="M525 120 h-7 v-40 h14 v40 z" stroke="black" fill="white" stroke-width="1" />
	<text x="525" y="140" text-anchor="middle">8B</text>
</a>
<a href="./boulders/?grade=8B%2B">
	<path d="M555 120 h-7 v-10 h14 v10 z" stroke="black" fill="white" stroke-width="1" />
	<text x="555" y="140" text-anchor="middle">8B+</text>
</a>
</svg>
